<svg width="722" height="458" viewBox="0 0 722 458" fill="none" xmlns="http://www.w3.org/2000/svg">
<g clip-path="url(#clip0_609_104)">
<g filter="url(#filter0_i_609_104)">
<rect width="722" height="458" rx="25" fill="url(#paint0_linear_609_104)"/>
</g>
<path d="M228.2 363.456C226.936 363.456 225.824 363.208 224.864 362.712C223.904 362.216 223.16 361.488 222.632 360.528C222.104 359.568 221.84 358.392 221.84 357V356.232H225.224V357.288C225.224 358.216 225.496 358.952 226.04 359.496C226.584 360.024 227.296 360.288 228.176 360.288C229.072 360.288 229.784 360.024 230.312 359.496C230.856 358.952 231.128 358.216 231.128 357.288V348H234.536V357C234.536 358.392 234.272 359.568 233.744 360.528C233.216 361.488 232.48 362.216 231.536 362.712C230.592 363.208 229.48 363.456 228.2 363.456ZM223.976 348.48V345.48H234.536V348.48H223.976ZM249.19 363.456C247.606 363.456 246.23 363.176 245.062 362.616C243.91 362.056 242.95 361.328 242.182 360.432C241.43 359.52 240.862 358.544 240.478 357.504C240.11 356.448 239.926 355.432 239.926 354.456V353.928C239.926 352.856 240.118 351.792 240.502 350.736C240.886 349.664 241.462 348.696 242.23 347.832C243.014 346.968 243.982 346.28 245.134 345.768C246.286 345.24 247.638 344.976 249.19 344.976C250.726 344.976 252.07 345.24 253.222 345.768C254.374 346.28 255.334 346.968 256.102 347.832C256.886 348.696 257.47 349.664 257.854 350.736C258.238 351.792 258.43 352.856 258.43 353.928V354.456C258.43 355.432 258.238 356.448 257.854 357.504C257.486 358.544 256.918 359.52 256.15 360.432C255.398 361.328 254.438 362.056 253.27 362.616C252.118 363.176 250.758 363.456 249.19 363.456ZM249.19 360.288C250.086 360.288 250.886 360.128 251.59 359.808C252.31 359.488 252.918 359.048 253.414 358.488C253.926 357.912 254.31 357.264 254.566 356.544C254.838 355.808 254.974 355.032 254.974 354.216C254.974 353.336 254.838 352.528 254.566 351.792C254.31 351.056 253.926 350.416 253.414 349.872C252.918 349.328 252.31 348.904 251.59 348.6C250.87 348.296 250.07 348.144 249.19 348.144C248.294 348.144 247.486 348.296 246.766 348.6C246.046 348.904 245.43 349.328 244.918 349.872C244.422 350.416 244.038 351.056 243.766 351.792C243.51 352.528 243.382 353.336 243.382 354.216C243.382 355.032 243.51 355.808 243.766 356.544C244.038 357.264 244.422 357.912 244.918 358.488C245.43 359.048 246.046 359.488 246.766 359.808C247.486 360.128 248.294 360.288 249.19 360.288ZM270.006 363.456C268.454 363.456 267.142 363.208 266.07 362.712C265.014 362.216 264.206 361.536 263.646 360.672C263.086 359.792 262.806 358.8 262.806 357.696H266.142C266.142 358.16 266.27 358.616 266.526 359.064C266.782 359.496 267.19 359.848 267.75 360.12C268.326 360.392 269.078 360.528 270.006 360.528C270.838 360.528 271.534 360.408 272.094 360.168C272.654 359.928 273.07 359.616 273.342 359.232C273.614 358.832 273.75 358.384 273.75 357.888C273.75 357.264 273.486 356.768 272.958 356.4C272.43 356.016 271.614 355.776 270.51 355.68L268.974 355.56C267.294 355.416 265.95 354.896 264.942 354C263.95 353.088 263.454 351.888 263.454 350.4C263.454 349.28 263.718 348.32 264.246 347.52C264.774 346.704 265.51 346.08 266.454 345.648C267.414 345.2 268.534 344.976 269.814 344.976C271.142 344.976 272.286 345.208 273.246 345.672C274.206 346.136 274.95 346.792 275.478 347.64C276.006 348.472 276.27 349.456 276.27 350.592H272.934C272.934 350.112 272.814 349.672 272.574 349.272C272.35 348.856 272.006 348.528 271.542 348.288C271.094 348.032 270.518 347.904 269.814 347.904C269.142 347.904 268.582 348.016 268.134 348.24C267.686 348.464 267.35 348.768 267.126 349.152C266.902 349.536 266.79 349.952 266.79 350.4C266.79 350.944 266.99 351.424 267.39 351.84C267.79 352.24 268.422 352.472 269.286 352.536L270.822 352.68C272.07 352.776 273.166 353.04 274.11 353.472C275.054 353.904 275.782 354.488 276.294 355.224C276.822 355.96 277.086 356.848 277.086 357.888C277.086 358.992 276.798 359.968 276.222 360.816C275.646 361.648 274.822 362.296 273.75 362.76C272.694 363.224 271.446 363.456 270.006 363.456ZM282.602 363V345.48H285.938V363H282.602ZM285.458 363V360.12H293.402V363H285.458ZM285.458 355.536V352.656H292.778V355.536H285.458ZM285.458 348.36V345.48H293.21V348.36H285.458ZM286.13 344.136L289.154 339.96H292.802L289.274 344.136H286.13ZM312.855 363.456C311.303 363.456 309.991 363.208 308.919 362.712C307.863 362.216 307.055 361.536 306.495 360.672C305.935 359.792 305.655 358.8 305.655 357.696H308.991C308.991 358.16 309.119 358.616 309.375 359.064C309.631 359.496 310.039 359.848 310.599 360.12C311.175 360.392 311.927 360.528 312.855 360.528C313.687 360.528 314.383 360.408 314.943 360.168C315.503 359.928 315.919 359.616 316.191 359.232C316.463 358.832 316.599 358.384 316.599 357.888C316.599 357.264 316.335 356.768 315.807 356.4C315.279 356.016 314.463 355.776 313.359 355.68L311.823 355.56C310.143 355.416 308.799 354.896 307.791 354C306.799 353.088 306.303 351.888 306.303 350.4C306.303 349.28 306.567 348.32 307.095 347.52C307.623 346.704 308.359 346.08 309.303 345.648C310.263 345.2 311.383 344.976 312.663 344.976C313.991 344.976 315.135 345.208 316.095 345.672C317.055 346.136 317.799 346.792 318.327 347.64C318.855 348.472 319.119 349.456 319.119 350.592H315.783C315.783 350.112 315.663 349.672 315.423 349.272C315.199 348.856 314.855 348.528 314.391 348.288C313.943 348.032 313.367 347.904 312.663 347.904C311.991 347.904 311.431 348.016 310.983 348.24C310.535 348.464 310.199 348.768 309.975 349.152C309.751 349.536 309.639 349.952 309.639 350.4C309.639 350.944 309.839 351.424 310.239 351.84C310.639 352.24 311.271 352.472 312.135 352.536L313.671 352.68C314.919 352.776 316.015 353.04 316.959 353.472C317.903 353.904 318.631 354.488 319.143 355.224C319.671 355.96 319.935 356.848 319.935 357.888C319.935 358.992 319.647 359.968 319.071 360.816C318.495 361.648 317.671 362.296 316.599 362.76C315.543 363.224 314.295 363.456 312.855 363.456ZM333.03 363V345.48H338.622L345.99 360.168H346.782L346.302 360.6V345.48H349.518V363H343.902L336.534 348.312H335.718L336.198 347.88V363H333.03ZM363.823 363V345.48H369.415L376.783 360.168H377.575L377.095 360.6V345.48H380.311V363H374.695L367.327 348.312H366.511L366.991 347.88V363H363.823ZM387.035 363V345.48H390.371V363H387.035ZM389.891 363V360.12H397.835V363H389.891ZM389.891 355.536V352.656H397.211V355.536H389.891ZM389.891 348.36V345.48H397.643V348.36H389.891ZM407.188 363V348H410.596V363H407.188ZM402.124 348.48V345.48H415.66V348.48H402.124ZM428.497 363.456C426.913 363.456 425.537 363.176 424.369 362.616C423.217 362.056 422.257 361.328 421.489 360.432C420.737 359.52 420.169 358.544 419.785 357.504C419.417 356.448 419.233 355.432 419.233 354.456V353.928C419.233 352.856 419.425 351.792 419.809 350.736C420.193 349.664 420.769 348.696 421.537 347.832C422.321 346.968 423.289 346.28 424.441 345.768C425.593 345.24 426.945 344.976 428.497 344.976C430.033 344.976 431.377 345.24 432.529 345.768C433.681 346.28 434.641 346.968 435.409 347.832C436.193 348.696 436.777 349.664 437.161 350.736C437.545 351.792 437.737 352.856 437.737 353.928V354.456C437.737 355.432 437.545 356.448 437.161 357.504C436.793 358.544 436.225 359.52 435.457 360.432C434.705 361.328 433.745 362.056 432.577 362.616C431.425 363.176 430.065 363.456 428.497 363.456ZM428.497 360.288C429.393 360.288 430.193 360.128 430.897 359.808C431.617 359.488 432.225 359.048 432.721 358.488C433.233 357.912 433.617 357.264 433.873 356.544C434.145 355.808 434.281 355.032 434.281 354.216C434.281 353.336 434.145 352.528 433.873 351.792C433.617 351.056 433.233 350.416 432.721 349.872C432.225 349.328 431.617 348.904 430.897 348.6C430.177 348.296 429.377 348.144 428.497 348.144C427.601 348.144 426.793 348.296 426.073 348.6C425.353 348.904 424.737 349.328 424.225 349.872C423.729 350.416 423.345 351.056 423.073 351.792C422.817 352.528 422.689 353.336 422.689 354.216C422.689 355.032 422.817 355.808 423.073 356.544C423.345 357.264 423.729 357.912 424.225 358.488C424.737 359.048 425.353 359.488 426.073 359.808C426.793 360.128 427.601 360.288 428.497 360.288Z" fill="#FEFBFF"/>
<path fill-rule="evenodd" clip-rule="evenodd" d="M94.6654 319.851C94.6654 319.852 94.6657 319.826 94.6766 319.771C94.6871 319.717 94.7054 319.646 94.7347 319.559C94.7935 319.385 94.8901 319.165 95.0334 318.917C95.32 318.421 95.7759 317.841 96.4342 317.301C97.733 316.235 99.8636 315.292 103.14 315.533C116.1 316.484 123.415 325.41 123.415 332.161V372.168C123.415 372.805 123.268 373.099 123.132 373.241C123.004 373.375 122.718 373.546 122.028 373.546H114.306C113.616 373.546 113.33 373.375 113.202 373.241C113.066 373.1 112.919 372.805 112.919 372.168V335.238C112.919 332.828 111.735 330.421 109.988 328.634C108.238 326.842 105.817 325.566 103.213 325.566H94.6654V319.851ZM103.213 327.566H94.6654V372.168C94.6654 373.162 94.4817 374.108 93.7928 374.763C93.1156 375.407 92.1813 375.546 91.2784 375.546H83.4154C82.6084 375.546 81.7233 375.389 81.0382 374.792C80.3257 374.171 80.0284 373.251 80.0284 372.168V334.819C80.0284 332.956 81.0921 330.668 82.6635 328.878C84.2482 327.074 86.5354 325.566 89.1714 325.566H92.6654V319.851C92.6654 319.284 92.9171 318.582 93.3016 317.917C93.7056 317.217 94.317 316.45 95.1659 315.754C96.8815 314.347 99.525 313.262 103.287 313.538C117.005 314.545 125.415 324.098 125.415 332.161V372.168C125.415 373.069 125.212 373.963 124.575 374.626C123.931 375.297 123.024 375.546 122.028 375.546H114.306C113.311 375.546 112.403 375.297 111.759 374.626C111.123 373.963 110.919 373.069 110.919 372.168V335.238C110.919 333.463 110.026 331.534 108.558 330.031C107.093 328.532 105.161 327.566 103.213 327.566ZM89.1714 327.566H92.6654V372.168C92.6654 372.991 92.498 373.235 92.4146 373.314C92.3196 373.404 92.0604 373.546 91.2784 373.546H83.4154C82.8182 373.546 82.5098 373.422 82.3524 373.285C82.2226 373.171 82.0284 372.902 82.0284 372.168V334.819C82.0284 333.604 82.7896 331.766 84.1664 330.198C85.5299 328.645 87.3142 327.566 89.1714 327.566ZM164.111 381.128C164.111 381.13 164.11 381.156 164.1 381.209C164.089 381.262 164.071 381.333 164.042 381.42C163.983 381.595 163.886 381.814 163.743 382.063C163.457 382.559 163.001 383.139 162.342 383.679C161.043 384.744 158.913 385.687 155.636 385.447C142.676 384.495 135.361 375.569 135.361 368.819V328.812C135.361 328.175 135.508 327.88 135.644 327.739C135.772 327.605 136.058 327.434 136.748 327.434H144.471C145.16 327.434 145.446 327.605 145.575 327.739C145.71 327.88 145.858 328.175 145.858 328.812V365.741C145.858 368.151 147.042 370.559 148.788 372.346C150.539 374.137 152.96 375.414 155.563 375.414H164.111V381.128V381.128ZM155.563 373.414H164.111V328.812C164.111 327.817 164.295 326.872 164.984 326.216C165.661 325.572 166.595 325.434 167.498 325.434H175.361C176.168 325.434 177.053 325.59 177.738 326.187C178.451 326.808 178.748 327.728 178.748 328.812V366.161C178.748 368.023 177.684 370.312 176.113 372.101C174.528 373.906 172.241 375.414 169.605 375.414H166.111V381.128C166.111 381.695 165.859 382.397 165.475 383.063C165.071 383.762 164.459 384.529 163.611 385.225C161.895 386.632 159.252 387.718 155.49 387.441C141.772 386.434 133.361 376.882 133.361 368.819V328.812C133.361 327.91 133.565 327.016 134.201 326.353C134.845 325.683 135.753 325.434 136.748 325.434H144.471C145.466 325.434 146.373 325.683 147.017 326.353C147.654 327.016 147.858 327.91 147.858 328.812V365.741C147.858 367.516 148.75 369.445 150.219 370.948C151.683 372.447 153.615 373.414 155.563 373.414ZM169.605 373.414H166.111V328.812C166.111 327.988 166.279 327.745 166.362 327.666C166.457 327.575 166.716 327.434 167.498 327.434H175.361C175.958 327.434 176.267 327.558 176.424 327.695C176.554 327.808 176.748 328.077 176.748 328.812V366.161C176.748 367.376 175.987 369.214 174.61 370.782C173.247 372.334 171.462 373.414 169.605 373.414Z" fill="#FEFBFF"/>
<circle cx="581.889" cy="86.4971" r="45.7505" fill="#E71924"/>
<circle cx="637.647" cy="86.4971" r="45.7505" fill="#F99F19"/>
<path fill-rule="evenodd" clip-rule="evenodd" d="M609.768 122.595C620.636 114.23 627.64 101.092 627.64 86.3172C627.64 71.5427 620.636 58.404 609.768 50.0396C598.9 58.404 591.897 71.5427 591.897 86.3172C591.897 101.092 598.9 114.23 609.768 122.595Z" fill="#F26520"/>
<rect x="80.4209" y="156.195" width="97.9347" height="69.3406" rx="6.07624" fill="url(#paint1_linear_609_104)" stroke="#211F21" stroke-width="2.14455"/>
<path d="M80.7783 178.713H110.087" stroke="#211F21" stroke-width="2" stroke-linecap="round"/>
<path d="M80.7783 200.873H109.445" stroke="#211F21" stroke-width="2" stroke-linecap="round"/>
<path d="M149.404 200.873H177.998" stroke="#211F21" stroke-width="2" stroke-linecap="round"/>
<path d="M148.975 179.428H177.998" stroke="#211F21" stroke-width="2" stroke-linecap="round"/>
<circle cx="129.388" cy="166.561" r="2.14455" fill="#211F21"/>
<path d="M231.053 205.824C236.325 192.59 236.926 185.119 231.053 171.645C230.43 170.215 231.053 169.024 231.768 168.786C232.483 168.547 233.589 168.786 234.27 170.215C241.188 184.73 240.767 192.87 234.627 207.387C233.912 208.817 232.575 208.998 231.768 208.46C230.824 207.831 230.608 206.941 231.053 205.824Z" fill="#FEFBFF"/>
<path d="M223.547 172.717C222.832 173.075 222.375 174.43 223.19 175.934C227.999 185.94 227.801 191.662 223.19 202.026C222.686 203.071 222.998 204.226 223.905 204.528C224.977 204.886 225.913 204.125 226.406 203.098C231.701 192.084 231.84 185.756 226.406 174.147C225.905 173.075 224.619 172.181 223.547 172.717Z" fill="#FEFBFF"/>
<path d="M216.399 177.364C215.326 177.721 215.136 178.908 215.684 180.223C218.53 187.063 218.979 190.898 215.684 197.737C215.041 198.929 214.83 200.193 216.041 200.596C217.252 201 218.126 200.363 218.543 199.524C222.766 191.149 221.82 186.454 218.543 178.079C218.263 177.364 217.471 177.006 216.399 177.364Z" fill="#FEFBFF"/>
<path d="M208.893 180.223C207.82 180.938 207.668 182.022 208.535 183.797C210.344 187.564 210.303 189.68 208.535 193.448C207.713 195.11 207.463 197.022 208.893 197.38C210.322 197.737 210.957 197.229 211.752 195.235C213.578 189.987 213.756 187.02 211.752 181.653C211.291 180.261 210.322 179.508 208.893 180.223Z" fill="#FEFBFF"/>
<path d="M145.115 170.849C142.372 161.508 137.251 156.91 129.03 156.91C119.023 156.91 116.194 164.53 110.087 178.355C113.998 187.507 114.039 192.437 110.087 200.873C116.494 219.254 121.24 224.915 129.388 224.821C140.111 224.821 143.163 215.733 149.046 200.873C145.952 192.497 145.622 187.875 148.5 179.5" stroke="#211F21" stroke-width="2" stroke-linecap="round"/>
</g>
<defs>
<filter id="filter0_i_609_104" x="0" y="0" width="725" height="461" filterUnits="userSpaceOnUse" color-interpolation-filters="sRGB">
<feFlood flood-opacity="0" result="BackgroundImageFix"/>
<feBlend mode="normal" in="SourceGraphic" in2="BackgroundImageFix" result="shape"/>
<feColorMatrix in="SourceAlpha" type="matrix" values="0 0 0 0 0 0 0 0 0 0 0 0 0 0 0 0 0 0 127 0" result="hardAlpha"/>
<feOffset dx="3" dy="3"/>
<feGaussianBlur stdDeviation="3"/>
<feComposite in2="hardAlpha" operator="arithmetic" k2="-1" k3="1"/>
<feColorMatrix type="matrix" values="0 0 0 0 1 0 0 0 0 1 0 0 0 0 1 0 0 0 0.25 0"/>
<feBlend mode="normal" in2="shape" result="effect1_innerShadow_609_104"/>
</filter>
<linearGradient id="paint0_linear_609_104" x1="610.09" y1="61.83" x2="354.096" y2="526.995" gradientUnits="userSpaceOnUse">
<stop stop-color="#A950C4"/>
<stop offset="1" stop-color="#82269E"/>
</linearGradient>
<linearGradient id="paint1_linear_609_104" x1="171" y1="165" x2="87" y2="221" gradientUnits="userSpaceOnUse">
<stop stop-color="#F4F4F4"/>
<stop offset="1" stop-color="#D6D6D6"/>
</linearGradient>
<clipPath id="clip0_609_104">
<rect width="722" height="458" fill="white"/>
</clipPath>
</defs>
</svg>
