<svg width="722" height="458" viewBox="0 0 722 458" fill="none" xmlns="http://www.w3.org/2000/svg">
<g clip-path="url(#clip0_609_104)">
<g filter="url(#filter0_i_609_104)">
<rect width="722" height="458" rx="25" fill="url(#paint0_linear_609_104)"/>
</g>
<path d="M223.16 363V345.48H228.752L236.12 360.168H236.432V345.48H239.648V363H234.032L226.664 348.312H226.328V363H223.16ZM244.644 363L250.621 345.48H256.188L262.333 363H258.829L257.221 358.344H249.588L248.052 363H244.644ZM250.548 355.464H256.237L253.812 348.336H252.924L250.548 355.464ZM273.194 363.456C271.642 363.456 270.33 363.208 269.258 362.712C268.186 362.216 267.37 361.536 266.81 360.672C266.266 359.808 265.994 358.816 265.994 357.696H269.33C269.33 358.176 269.458 358.632 269.714 359.064C269.97 359.496 270.378 359.848 270.938 360.12C271.514 360.392 272.266 360.528 273.194 360.528C274.442 360.528 275.378 360.272 276.002 359.76C276.626 359.248 276.938 358.624 276.938 357.888C276.938 357.28 276.674 356.784 276.146 356.4C275.618 356.016 274.802 355.776 273.698 355.68L272.162 355.56C270.482 355.416 269.138 354.896 268.13 354C267.138 353.088 266.642 351.888 266.642 350.4C266.642 349.296 266.898 348.336 267.41 347.52C267.938 346.704 268.682 346.08 269.642 345.648C270.602 345.2 271.722 344.976 273.002 344.976C274.314 344.976 275.45 345.208 276.41 345.672C277.386 346.136 278.138 346.792 278.666 347.64C279.194 348.472 279.458 349.456 279.458 350.592H276.122C276.122 349.888 275.858 349.264 275.33 348.72C274.818 348.176 274.042 347.904 273.002 347.904C271.978 347.904 271.218 348.152 270.722 348.648C270.226 349.144 269.978 349.728 269.978 350.4C269.978 350.944 270.17 351.424 270.554 351.84C270.954 352.24 271.594 352.472 272.474 352.536L274.01 352.68C275.258 352.792 276.346 353.064 277.274 353.496C278.218 353.912 278.954 354.488 279.482 355.224C280.01 355.96 280.274 356.848 280.274 357.888C280.274 358.992 279.978 359.968 279.386 360.816C278.81 361.648 277.994 362.296 276.938 362.76C275.882 363.224 274.634 363.456 273.194 363.456ZM291.766 363.456C290.214 363.456 288.902 363.208 287.83 362.712C286.758 362.216 285.942 361.536 285.382 360.672C284.838 359.808 284.566 358.816 284.566 357.696H287.902C287.902 358.176 288.03 358.632 288.286 359.064C288.542 359.496 288.95 359.848 289.51 360.12C290.086 360.392 290.838 360.528 291.766 360.528C293.014 360.528 293.95 360.272 294.574 359.76C295.198 359.248 295.51 358.624 295.51 357.888C295.51 357.28 295.246 356.784 294.718 356.4C294.19 356.016 293.374 355.776 292.27 355.68L290.734 355.56C289.054 355.416 287.71 354.896 286.702 354C285.71 353.088 285.214 351.888 285.214 350.4C285.214 349.296 285.47 348.336 285.982 347.52C286.51 346.704 287.254 346.08 288.214 345.648C289.174 345.2 290.294 344.976 291.574 344.976C292.886 344.976 294.022 345.208 294.982 345.672C295.958 346.136 296.71 346.792 297.238 347.64C297.766 348.472 298.03 349.456 298.03 350.592H294.694C294.694 349.888 294.43 349.264 293.902 348.72C293.39 348.176 292.614 347.904 291.574 347.904C290.55 347.904 289.79 348.152 289.294 348.648C288.798 349.144 288.55 349.728 288.55 350.4C288.55 350.944 288.742 351.424 289.126 351.84C289.526 352.24 290.166 352.472 291.046 352.536L292.582 352.68C293.83 352.792 294.918 353.064 295.846 353.496C296.79 353.912 297.526 354.488 298.054 355.224C298.582 355.96 298.846 356.848 298.846 357.888C298.846 358.992 298.55 359.968 297.958 360.816C297.382 361.648 296.566 362.296 295.51 362.76C294.454 363.224 293.206 363.456 291.766 363.456ZM304.362 363V345.48H314.97V348.36H307.698V352.656H314.538V355.536H307.698V360.12H315.162V363H304.362ZM321.058 363V345.36H327.562C329.658 345.36 331.33 345.832 332.578 346.776C333.826 347.72 334.45 349.152 334.45 351.072V351.48C334.45 352.792 334.146 353.872 333.538 354.72C332.946 355.568 332.122 356.192 331.066 356.592L335.746 363H331.762L327.634 357.144H327.562H324.466V363H321.058ZM327.922 348.264H324.466V354.384H327.922C328.85 354.384 329.594 354.104 330.154 353.544C330.714 352.984 330.994 352.248 330.994 351.336C330.994 350.424 330.714 349.688 330.154 349.128C329.594 348.552 328.85 348.264 327.922 348.264ZM352.536 363V356.304H351.672L346.392 345.48H349.896L353.808 353.712H354.72L358.296 345.48H361.608L356.736 356.304H355.872V363H352.536ZM379.994 363.456C378.442 363.456 377.13 363.208 376.058 362.712C374.986 362.216 374.17 361.536 373.61 360.672C373.066 359.808 372.794 358.816 372.794 357.696H376.13C376.13 358.176 376.258 358.632 376.514 359.064C376.77 359.496 377.178 359.848 377.738 360.12C378.314 360.392 379.066 360.528 379.994 360.528C381.242 360.528 382.178 360.272 382.802 359.76C383.426 359.248 383.738 358.624 383.738 357.888C383.738 357.28 383.474 356.784 382.946 356.4C382.418 356.016 381.602 355.776 380.498 355.68L378.962 355.56C377.282 355.416 375.938 354.896 374.93 354C373.938 353.088 373.442 351.888 373.442 350.4C373.442 349.296 373.698 348.336 374.21 347.52C374.738 346.704 375.482 346.08 376.442 345.648C377.402 345.2 378.522 344.976 379.802 344.976C381.114 344.976 382.25 345.208 383.21 345.672C384.186 346.136 384.938 346.792 385.466 347.64C385.994 348.472 386.258 349.456 386.258 350.592H382.922C382.922 349.888 382.658 349.264 382.13 348.72C381.618 348.176 380.842 347.904 379.802 347.904C378.778 347.904 378.018 348.152 377.522 348.648C377.026 349.144 376.778 349.728 376.778 350.4C376.778 350.944 376.97 351.424 377.354 351.84C377.754 352.24 378.394 352.472 379.274 352.536L380.81 352.68C382.058 352.792 383.146 353.064 384.074 353.496C385.018 353.912 385.754 354.488 386.282 355.224C386.81 355.96 387.074 356.848 387.074 357.888C387.074 358.992 386.778 359.968 386.186 360.816C385.61 361.648 384.794 362.296 383.738 362.76C382.682 363.224 381.434 363.456 379.994 363.456ZM398.441 363L404.417 345.48H409.985L416.129 363H412.625L411.017 358.344H403.385L401.849 363H398.441ZM404.345 355.464H410.033L407.609 348.336H406.721L404.345 355.464ZM421.132 363V345.48H424.54V360H431.62V363H421.132ZM436.845 363V345.48H440.253V363H436.845Z" fill="#FEFBFF"/>
<path fill-rule="evenodd" clip-rule="evenodd" d="M94.6654 319.851C94.6654 319.852 94.6657 319.826 94.6766 319.771C94.6871 319.717 94.7054 319.646 94.7347 319.559C94.7935 319.385 94.8901 319.165 95.0334 318.917C95.32 318.421 95.7759 317.841 96.4342 317.301C97.733 316.235 99.8636 315.292 103.14 315.533C116.1 316.484 123.415 325.41 123.415 332.161V372.168C123.415 372.805 123.268 373.099 123.132 373.241C123.004 373.375 122.718 373.546 122.028 373.546H114.306C113.616 373.546 113.33 373.375 113.202 373.241C113.066 373.1 112.919 372.805 112.919 372.168V335.238C112.919 332.828 111.735 330.421 109.988 328.634C108.238 326.842 105.817 325.566 103.213 325.566H94.6654V319.851ZM103.213 327.566H94.6654V372.168C94.6654 373.162 94.4817 374.108 93.7928 374.763C93.1156 375.407 92.1813 375.546 91.2784 375.546H83.4154C82.6084 375.546 81.7233 375.389 81.0382 374.792C80.3257 374.171 80.0284 373.251 80.0284 372.168V334.819C80.0284 332.956 81.0921 330.668 82.6635 328.878C84.2482 327.074 86.5354 325.566 89.1714 325.566H92.6654V319.851C92.6654 319.284 92.9171 318.582 93.3016 317.917C93.7056 317.217 94.317 316.45 95.1659 315.754C96.8815 314.347 99.525 313.262 103.287 313.538C117.005 314.545 125.415 324.098 125.415 332.161V372.168C125.415 373.069 125.212 373.963 124.575 374.626C123.931 375.297 123.024 375.546 122.028 375.546H114.306C113.311 375.546 112.403 375.297 111.759 374.626C111.123 373.963 110.919 373.069 110.919 372.168V335.238C110.919 333.463 110.026 331.534 108.558 330.031C107.093 328.532 105.161 327.566 103.213 327.566ZM89.1714 327.566H92.6654V372.168C92.6654 372.991 92.498 373.235 92.4146 373.314C92.3196 373.404 92.0604 373.546 91.2784 373.546H83.4154C82.8182 373.546 82.5098 373.422 82.3524 373.285C82.2226 373.171 82.0284 372.902 82.0284 372.168V334.819C82.0284 333.604 82.7896 331.766 84.1664 330.198C85.5299 328.645 87.3142 327.566 89.1714 327.566ZM164.111 381.128C164.111 381.13 164.11 381.156 164.1 381.209C164.089 381.262 164.071 381.333 164.042 381.42C163.983 381.595 163.886 381.814 163.743 382.063C163.457 382.559 163.001 383.139 162.342 383.679C161.043 384.744 158.913 385.687 155.636 385.447C142.676 384.495 135.361 375.569 135.361 368.819V328.812C135.361 328.175 135.508 327.88 135.644 327.739C135.772 327.605 136.058 327.434 136.748 327.434H144.471C145.16 327.434 145.446 327.605 145.575 327.739C145.71 327.88 145.858 328.175 145.858 328.812V365.741C145.858 368.151 147.042 370.559 148.788 372.346C150.539 374.137 152.96 375.414 155.563 375.414H164.111V381.128V381.128ZM155.563 373.414H164.111V328.812C164.111 327.817 164.295 326.872 164.984 326.216C165.661 325.572 166.595 325.434 167.498 325.434H175.361C176.168 325.434 177.053 325.59 177.738 326.187C178.451 326.808 178.748 327.728 178.748 328.812V366.161C178.748 368.023 177.684 370.312 176.113 372.101C174.528 373.906 172.241 375.414 169.605 375.414H166.111V381.128C166.111 381.695 165.859 382.397 165.475 383.063C165.071 383.762 164.459 384.529 163.611 385.225C161.895 386.632 159.252 387.718 155.49 387.441C141.772 386.434 133.361 376.882 133.361 368.819V328.812C133.361 327.91 133.565 327.016 134.201 326.353C134.845 325.683 135.753 325.434 136.748 325.434H144.471C145.466 325.434 146.373 325.683 147.017 326.353C147.654 327.016 147.858 327.91 147.858 328.812V365.741C147.858 367.516 148.75 369.445 150.219 370.948C151.683 372.447 153.615 373.414 155.563 373.414ZM169.605 373.414H166.111V328.812C166.111 327.988 166.279 327.745 166.362 327.666C166.457 327.575 166.716 327.434 167.498 327.434H175.361C175.958 327.434 176.267 327.558 176.424 327.695C176.554 327.808 176.748 328.077 176.748 328.812V366.161C176.748 367.376 175.987 369.214 174.61 370.782C173.247 372.334 171.462 373.414 169.605 373.414Z" fill="#FEFBFF"/>
<circle cx="581.889" cy="86.4971" r="45.7505" fill="#E71924"/>
<circle cx="637.647" cy="86.4971" r="45.7505" fill="#F99F19"/>
<path fill-rule="evenodd" clip-rule="evenodd" d="M609.768 122.595C620.636 114.23 627.64 101.092 627.64 86.3172C627.64 71.5427 620.636 58.404 609.768 50.0396C598.9 58.404 591.897 71.5427 591.897 86.3172C591.897 101.092 598.9 114.23 609.768 122.595Z" fill="#F26520"/>
<rect x="80.4209" y="156.195" width="97.9347" height="69.3406" rx="6.07624" fill="url(#paint1_linear_609_104)" stroke="#211F21" stroke-width="2.14455"/>
<path d="M80.7783 178.713H110.087" stroke="#211F21" stroke-width="2" stroke-linecap="round"/>
<path d="M80.7783 200.873H109.445" stroke="#211F21" stroke-width="2" stroke-linecap="round"/>
<path d="M149.404 200.873H177.998" stroke="#211F21" stroke-width="2" stroke-linecap="round"/>
<path d="M148.975 179.428H177.998" stroke="#211F21" stroke-width="2" stroke-linecap="round"/>
<circle cx="129.388" cy="166.561" r="2.14455" fill="#211F21"/>
<path d="M231.053 205.824C236.325 192.59 236.926 185.119 231.053 171.645C230.43 170.215 231.053 169.024 231.768 168.786C232.483 168.547 233.589 168.786 234.27 170.215C241.188 184.73 240.767 192.87 234.627 207.387C233.912 208.817 232.575 208.998 231.768 208.46C230.824 207.831 230.608 206.941 231.053 205.824Z" fill="#FEFBFF"/>
<path d="M223.547 172.717C222.832 173.075 222.375 174.43 223.19 175.934C227.999 185.94 227.801 191.662 223.19 202.026C222.686 203.071 222.998 204.226 223.905 204.528C224.977 204.886 225.913 204.125 226.406 203.098C231.701 192.084 231.84 185.756 226.406 174.147C225.905 173.075 224.619 172.181 223.547 172.717Z" fill="#FEFBFF"/>
<path d="M216.399 177.364C215.326 177.721 215.136 178.908 215.684 180.223C218.53 187.063 218.979 190.898 215.684 197.737C215.041 198.929 214.83 200.193 216.041 200.596C217.252 201 218.126 200.363 218.543 199.524C222.766 191.149 221.82 186.454 218.543 178.079C218.263 177.364 217.471 177.006 216.399 177.364Z" fill="#FEFBFF"/>
<path d="M208.893 180.223C207.82 180.938 207.668 182.022 208.535 183.797C210.344 187.564 210.303 189.68 208.535 193.448C207.713 195.11 207.463 197.022 208.893 197.38C210.322 197.737 210.957 197.229 211.752 195.235C213.578 189.987 213.756 187.02 211.752 181.653C211.291 180.261 210.322 179.508 208.893 180.223Z" fill="#FEFBFF"/>
<path d="M145.115 170.849C142.372 161.508 137.251 156.91 129.03 156.91C119.023 156.91 116.194 164.53 110.087 178.355C113.998 187.507 114.039 192.437 110.087 200.873C116.494 219.254 121.24 224.915 129.388 224.821C140.111 224.821 143.163 215.733 149.046 200.873C145.952 192.497 145.622 187.875 148.5 179.5" stroke="#211F21" stroke-width="2" stroke-linecap="round"/>
</g>
<defs>
<filter id="filter0_i_609_104" x="0" y="0" width="725" height="461" filterUnits="userSpaceOnUse" color-interpolation-filters="sRGB">
<feFlood flood-opacity="0" result="BackgroundImageFix"/>
<feBlend mode="normal" in="SourceGraphic" in2="BackgroundImageFix" result="shape"/>
<feColorMatrix in="SourceAlpha" type="matrix" values="0 0 0 0 0 0 0 0 0 0 0 0 0 0 0 0 0 0 127 0" result="hardAlpha"/>
<feOffset dx="3" dy="3"/>
<feGaussianBlur stdDeviation="3"/>
<feComposite in2="hardAlpha" operator="arithmetic" k2="-1" k3="1"/>
<feColorMatrix type="matrix" values="0 0 0 0 1 0 0 0 0 1 0 0 0 0 1 0 0 0 0.25 0"/>
<feBlend mode="normal" in2="shape" result="effect1_innerShadow_609_104"/>
</filter>
<linearGradient id="paint0_linear_609_104" x1="610.09" y1="61.83" x2="354.096" y2="526.995" gradientUnits="userSpaceOnUse">
<stop stop-color="#A950C4"/>
<stop offset="1" stop-color="#82269E"/>
</linearGradient>
<linearGradient id="paint1_linear_609_104" x1="171" y1="165" x2="87" y2="221" gradientUnits="userSpaceOnUse">
<stop stop-color="#F4F4F4"/>
<stop offset="1" stop-color="#D6D6D6"/>
</linearGradient>
<clipPath id="clip0_609_104">
<rect width="722" height="458" fill="white"/>
</clipPath>
</defs>
</svg>
